# xmcd
# 
# Track frame offsets:
#     150
#     25500
#     45985
#     70527
#     89435
#     143410
#     164180
# 
# Disc length: 2368
# 
# Revision: 1
# Processed by: cddbd v1.5.2PL0 Copyright (c) Steve Scherf et al.
# Submitted via: fre:ac v1.0.31
# 
DISCID=4e093e07
DTITLE=Pink Floyd - A Saucerful of Secrets
DYEAR=1968
DGENRE=Progressive Rock
TTITLE0=Let There Be More Light
TTITLE1=Remember a Day
TTITLE2=Set the Controls for the Heart of the Sun
TTITLE3=Corporal Clegg
TTITLE4=A Saucerful of Secrets
TTITLE5=See-Saw
TTITLE6=Jugband Blues
EXTD=
EXTT0=
EXTT1=
EXTT2=
EXTT3=
EXTT4=
EXTT5=
EXTT6=
PLAYORDER=
